<?xml version="1.0" encoding="UTF-8" standalone="no"?>
<svg
   xmlns:dc="http://purl.org/dc/elements/1.1/"
   xmlns:cc="http://creativecommons.org/ns#"
   xmlns:rdf="http://www.w3.org/1999/02/22-rdf-syntax-ns#"
   xmlns:svg="http://www.w3.org/2000/svg"
   xmlns="http://www.w3.org/2000/svg"
   version="1.1"
   id="svg4312"
   viewBox="0 0 320 119.92232"
   height="119.92232"
   width="320">
  <defs
     id="defs4314">
    <clipPath
       id="clipPath4200"
       clipPathUnits="userSpaceOnUse">
      <circle
         r="18.182747"
         cy="586.80182"
         cx="-195.58444"
         id="circle4202"
         style="fill:#af908e;fill-opacity:1;stroke:none" />
    </clipPath>
  </defs>
  <metadata
     id="metadata4317">
    <rdf:RDF>
      <cc:Work
         rdf:about="">
        <dc:format>image/svg+xml</dc:format>
        <dc:type
           rdf:resource="http://purl.org/dc/dcmitype/StillImage" />
        <dc:title></dc:title>
      </cc:Work>
    </rdf:RDF>
  </metadata>
  <g
     transform="translate(-82.577865,-399.06666)"
     id="layer1">
    <g
       transform="matrix(1.2985488,0,0,1.2985488,-27.639006,-151.95802)"
       id="g4255">
      <text
         id="text4224"
         y="464.32489"
         x="252.13039"
         style="font-style:normal;font-weight:normal;font-size:40px;line-height:110.00000238%;font-family:sans-serif;letter-spacing:0px;word-spacing:72.94993591px;fill:#a60b00;fill-opacity:1;stroke:none;stroke-width:1px;stroke-linecap:butt;stroke-linejoin:miter;stroke-opacity:1"
         xml:space="preserve"><tspan
           id="tspan4226"
           style="font-style:normal;font-variant:normal;font-weight:normal;font-stretch:condensed;font-size:40px;line-height:110.00000238%;font-family:Impact;-inkscape-font-specification:'Impact, Condensed';text-align:center;letter-spacing:10px;word-spacing:0px;writing-mode:lr-tb;text-anchor:middle;fill:#a60b00;fill-opacity:1"
           y="464.32489"
           x="257.13037">TURBO</tspan><tspan
           id="tspan4228"
           style="font-style:normal;font-variant:normal;font-weight:normal;font-stretch:condensed;font-size:40px;line-height:110.00000238%;font-family:Impact;-inkscape-font-specification:'Impact, Condensed';text-align:center;letter-spacing:10px;word-spacing:0px;writing-mode:lr-tb;text-anchor:middle;fill:#a60b00;fill-opacity:1"
           y="508.32489"
           x="257.13037">STATE</tspan></text>
      <path
         transform="matrix(2.0763889,0,0,2.0763889,536.44168,-747.91447)"
         clip-path="url(#clipPath4200)"
         id="path4230"
         d="m -251.49621,585.16664 0,-55.63906 67.39591,0 67.39591,0 0,55.63906 0,55.63907 -67.39591,0 -67.39591,0 0,-55.63907 z m 67.84522,40.06313 c 0.12356,-0.0798 0.15726,-0.14518 0.0749,-0.14518 -0.0824,0 -0.25086,0.0653 -0.37442,0.14518 -0.12356,0.0799 -0.15726,0.14518 -0.0749,0.14518 0.0824,0 0.25086,-0.0653 0.37442,-0.14518 z m 13.17964,-0.0769 c 0,-0.0423 -0.0627,-0.19394 -0.13945,-0.33698 -0.0767,-0.14303 -0.20831,-0.63074 -0.29247,-1.08379 l -0.15302,-0.82373 0.0628,1.01705 c 0.0345,0.55938 0.10271,1.08169 0.15154,1.16071 0.0927,0.15007 0.37064,0.20012 0.37064,0.0667 z m -1.94699,-1.94496 c 0,-0.1962 -0.0674,-0.39839 -0.14977,-0.4493 -0.0824,-0.0509 -0.14977,0.0502 -0.14977,0.22465 0,0.2045 -0.0665,0.28352 -0.18721,0.22239 -0.10296,-0.0522 -0.0703,9.9e-4 0.0726,0.11829 0.14287,0.11722 0.21027,0.26781 0.14977,0.33466 -0.0605,0.0668 -0.0258,0.073 0.0772,0.0138 0.10296,-0.0593 0.18721,-0.26827 0.18721,-0.46447 z m -38.40686,-0.3043 c -0.1599,-0.12094 -0.36209,-0.2175 -0.44931,-0.21458 -0.0872,0.003 0.01,0.10163 0.21584,0.21934 0.48514,0.27734 0.60324,0.27493 0.23347,-0.005 z m 42.79643,-1.68013 c 0.0861,-0.13307 -4.5e-4,-0.19234 -0.29954,-0.20495 -0.23139,-0.01 -0.48809,-0.002 -0.57047,0.0158 -0.0824,0.0184 -0.30141,0.0349 -0.48674,0.0364 -0.49813,0.004 -0.41328,0.30994 0.29953,1.07869 l 0.63652,0.68648 0.14977,-0.71261 c 0.0824,-0.39194 0.20429,-0.79687 0.27093,-0.89983 z m -43.55409,1.31047 c -0.0509,-0.0824 -0.15996,-0.14977 -0.24233,-0.14977 -0.0824,0 -0.10812,0.0674 -0.0572,0.14977 0.0509,0.0824 0.15996,0.14977 0.24233,0.14977 0.0824,0 0.10812,-0.0674 0.0572,-0.14977 z m 51.2209,-0.31802 c -0.16475,-0.0814 -0.49781,-0.4138 -0.74013,-0.7387 -0.26173,-0.35091 -0.56574,-0.59156 -0.74885,-0.59277 -0.16953,-10e-4 -0.47674,-0.0457 -0.68267,-0.0991 -0.29554,-0.0766 -0.20404,0.0579 0.43437,0.63856 0.80452,0.73174 1.16551,0.92607 1.73728,0.93522 0.29953,0.005 0.29953,0.005 0,-0.14319 z m 23.30686,-0.69292 c 0.0881,-0.22652 0.1802,-0.54665 0.20466,-0.7114 0.0245,-0.16474 0.0928,-0.5775 0.15178,-0.91724 0.13339,-0.76789 10e-4,-0.86497 -1.10973,-0.81442 -0.91547,0.0416 -2.3523,0.26001 -1.90911,0.29011 0.3801,0.0258 0.9597,0.50541 0.88428,0.73167 -0.034,0.10213 0.0111,0.19412 0.10036,0.20441 0.0892,0.0103 0.22964,0.0356 0.31201,0.0562 0.0824,0.0206 0.20032,0.0469 0.2621,0.0584 0.0618,0.0116 0.0112,0.0918 -0.11233,0.17831 -0.17586,0.12312 -0.15147,0.1367 0.11233,0.0625 0.26814,-0.0754 0.33698,-0.034 0.33698,0.2026 0,0.48181 0.15932,0.75812 0.38681,0.67082 0.11675,-0.0448 0.21226,-0.0125 0.21226,0.0719 0,0.0843 -0.0842,0.1873 -0.18721,0.22885 -0.14728,0.0594 -0.14649,0.0781 0.004,0.0874 0.10501,0.006 0.263,-0.17352 0.3511,-0.40005 z m -74.34367,0.17161 c -0.0498,-0.0498 -0.17894,-0.0551 -0.28706,-0.0118 -0.11947,0.0478 -0.084,0.0833 0.0905,0.0905 0.15788,0.006 0.24634,-0.0289 0.19657,-0.0787 z m 53.28225,-1.27423 c -0.16535,-0.0805 -0.41495,-0.34548 -0.55467,-0.58894 -0.27751,-0.48354 -0.75355,-0.57611 -1.20402,-0.23415 -0.65532,0.49745 -0.0818,0.99284 1.13396,0.97953 0.71241,-0.008 0.85617,-0.0438 0.62473,-0.15644 z m 14.66592,-0.22929 c 0.0519,-0.13534 0.062,-0.27846 0.0225,-0.31804 -0.13931,-0.1393 -0.53418,0.10817 -0.53418,0.33478 0,0.30662 0.39254,0.29378 0.5117,-0.0167 z m -25.35925,-0.69838 c -0.11857,-0.11858 -0.16382,-0.0797 -0.16382,0.14071 0,0.39596 0.20945,0.60612 0.27615,0.2771 0.0283,-0.1397 -0.0222,-0.32771 -0.11233,-0.41781 z m -33.47388,-2.41954 c -0.0583,-1.60309 -0.16312,-3.11408 -0.23301,-3.35776 -0.0699,-0.24368 -0.16398,-0.97079 -0.2091,-1.6158 -0.0451,-0.64501 -0.0439,-1.04193 0.002,-0.88206 0.0747,0.25659 0.10951,0.23904 0.29697,-0.14977 0.28934,-0.60008 0.54905,-1.03301 0.80403,-1.34024 0.19021,-0.22919 0.16787,-0.2974 -0.20141,-0.61505 -0.55994,-0.48164 -0.66854,-0.45314 -0.77873,0.20437 -0.0518,0.30889 -0.20158,0.89861 -0.33291,1.31047 -0.19352,0.60688 -0.23316,1.38551 -0.20909,4.10704 0.0163,1.84701 0.0857,3.43082 0.15417,3.51957 0.0685,0.0888 0.24886,0.51519 0.40089,0.94765 0.15204,0.43246 0.30683,0.78629 0.34398,0.78629 0.0371,0 0.0199,-1.31162 -0.0384,-2.91471 z m 36.9794,2.76494 c -0.0509,-0.0824 -0.20653,-0.14874 -0.34582,-0.14748 -0.21825,0.002 -0.22221,0.0224 -0.0286,0.14748 0.29331,0.18954 0.49157,0.18954 0.37442,0 z m -1.38251,-0.0982 c -0.1014,-0.041 -0.30358,-0.0435 -0.44931,-0.006 -0.14572,0.038 -0.0628,0.0715 0.18436,0.0746 0.24712,0.003 0.36635,-0.028 0.26495,-0.0691 z m 20.68011,-0.12162 c 0.14227,-0.37075 -0.21378,-0.43409 -0.55002,-0.0979 l -0.31771,0.31772 0.39168,0 c 0.21543,0 0.42965,-0.0989 0.47605,-0.21986 z m 0.44157,-0.0298 c -0.0421,-0.10983 -0.0959,-0.19969 -0.11947,-0.19969 -0.0236,0 -0.0773,0.0899 -0.11947,0.19969 -0.0421,0.10983 0.0116,0.19969 0.11947,0.19969 0.10785,0 0.16161,-0.0899 0.11947,-0.19969 z m -0.19436,-1.18203 c 0,-0.12842 -0.0685,-0.19116 -0.15221,-0.13942 -0.0837,0.0517 -0.11343,0.15681 -0.066,0.23349 0.12839,0.20774 0.21826,0.169 0.21826,-0.0941 z m 4.56795,0.0837 c 0.19751,-0.0849 0.22301,-0.13151 0.0749,-0.13695 -0.12356,-0.004 -0.32574,0.0571 -0.44931,0.13695 -0.27377,0.17693 -0.0373,0.17693 0.37442,0 z m 1.98132,-0.0905 c -0.0498,-0.0498 -0.17894,-0.0551 -0.28706,-0.0118 -0.11947,0.0478 -0.084,0.0833 0.0905,0.0905 0.15787,0.006 0.24633,-0.0289 0.19657,-0.0787 z m -20.70241,-0.20905 c -0.0509,-0.0824 -0.15995,-0.14977 -0.24232,-0.14977 -0.0824,0 -0.10812,0.0674 -0.0572,0.14977 0.0509,0.0824 0.15995,0.14976 0.24233,0.14976 0.0824,0 0.10811,-0.0674 0.0572,-0.14976 z m -44.31876,-1.16071 0.28187,-1.01094 0.0935,0.59907 c 0.0601,0.38506 0.10111,0.0201 0.11477,-1.02163 0.0182,-1.38483 -0.009,-1.59037 -0.18725,-1.41221 -0.11467,0.11468 -0.24164,0.33853 -0.28216,0.49745 -0.0585,0.22934 -0.0774,0.21171 -0.0916,-0.0855 -0.01,-0.20593 -0.14734,-0.8125 -0.30546,-1.34792 -0.25671,-0.86919 -0.28874,-0.91571 -0.29896,-0.43421 -0.006,0.2966 -0.0867,0.75523 -0.17874,1.01917 -0.13012,0.37329 -0.1135,0.77393 0.0749,1.8036 0.13319,0.72804 0.24217,1.56678 0.24217,1.86387 0,0.83906 0.22731,0.63977 0.53696,-0.47077 z m 44.12609,0.76586 c 0.0588,-0.0359 -0.0206,-0.19286 -0.17641,-0.34866 -0.28718,-0.28717 -0.56001,-1.51091 -0.39602,-1.77625 0.0492,-0.0796 0.1573,-1.61763 0.24024,-3.41787 0.14186,-3.07922 0.36317,-6.57083 0.81497,-12.85834 0.28897,-4.02127 0.21174,-7.59184 -0.20246,-9.36055 -0.18326,-0.78254 -0.46733,-2.02936 -0.63128,-2.77072 -1.13483,-5.13165 -1.26874,-5.61512 -2.21931,-8.01262 -0.59992,-1.51312 -2.16237,-4.62654 -2.67906,-5.33844 -0.23563,-0.32464 -0.58915,-0.51071 -0.40537,-0.21335 0.0474,0.0767 0.008,0.18783 -0.0879,0.24699 -0.12241,0.0756 -0.1464,-0.002 -0.0809,-0.26374 0.0709,-0.2826 -0.0858,-0.66214 -0.65576,-1.58833 -0.88411,-1.43663 -1.11158,-1.63983 -0.79474,-0.70995 0.12709,0.37298 0.29201,0.64049 0.36649,0.59445 0.0745,-0.046 0.11869,0.0719 0.0982,0.26198 -0.0234,0.21736 0.0462,0.35317 0.18743,0.36585 0.12357,0.0111 0.28346,0.028 0.35533,0.0374 0.0719,0.009 0.0492,0.11542 -0.0503,0.23537 -0.20042,0.24149 -0.0713,0.58911 0.16469,0.44328 0.0822,-0.0508 0.13312,-0.002 0.11318,0.10988 -0.0473,0.26403 0.27321,1.38063 0.61558,2.14437 0.6226,1.38889 1.17164,2.94559 1.55998,4.42304 0.7155,2.72218 1.64311,6.0647 2.11976,7.6382 0.44051,1.45424 0.46863,2.0263 0.35777,7.27813 -0.1133,5.36748 -0.48894,10.63537 -0.77859,10.91877 -0.10395,0.1017 -0.1258,-0.0305 -0.0681,-0.41186 0.0467,-0.3089 0.032,-0.56164 -0.0327,-0.56164 -0.17281,0 -0.31084,3.68274 -0.31716,8.46193 -0.003,2.45846 0.0511,4.1805 0.13132,4.16203 0.0753,-0.0173 0.26169,0.10642 0.41424,0.275 0.24132,0.26665 0.38478,0.29313 1.10366,0.20374 0.45445,-0.0565 0.87437,-0.13217 0.93314,-0.16813 z m -1.06854,-26.95042 c 0.007,-0.17447 0.0427,-0.20996 0.0905,-0.0905 0.0433,0.10812 0.0379,0.2373 -0.0118,0.28707 -0.0498,0.0498 -0.0852,-0.0387 -0.0787,-0.19658 z m 0.38016,-0.39035 c 0.18558,-0.30027 0.1611,-1.14269 -0.031,-1.06895 -0.11346,0.0435 -0.14775,-0.0654 -0.0997,-0.31675 0.0403,-0.21071 0.12557,-0.38312 0.18952,-0.38312 0.16798,0 0.35015,0.47692 0.30821,0.80692 -0.0198,0.15549 0.0541,0.34083 0.1642,0.41186 0.16614,0.10722 0.16507,0.15173 -0.006,0.26217 -0.11352,0.0732 -0.16009,0.20795 -0.10349,0.29953 0.0631,0.10216 -0.0197,0.16652 -0.21431,0.16652 -0.20706,0 -0.27897,-0.0619 -0.20709,-0.17818 z m -0.23039,-2.30548 c 0.007,-0.17448 0.0427,-0.20996 0.0905,-0.0905 0.0433,0.10812 0.0379,0.23729 -0.0118,0.28706 -0.0498,0.0498 -0.0852,-0.0387 -0.0787,-0.19657 z m 20.65626,29.50781 c 1.1944,-0.13412 2.18612,-0.25759 2.20381,-0.27436 0.0177,-0.0168 -0.92584,-0.0273 -2.09676,-0.0233 -1.17091,0.004 -2.39851,-0.0421 -2.728,-0.10228 -0.49712,-0.0909 -0.45889,-0.0615 0.22465,0.17253 0.80231,0.27469 0.8101,0.28267 0.29954,0.30723 -0.2883,0.0139 -0.65898,0.0886 -0.82373,0.16606 -0.23165,0.10893 -0.18074,0.12466 0.22465,0.0694 0.28831,-0.0393 1.50143,-0.18117 2.69584,-0.3153 z m -32.81342,-0.15762 c -0.21909,-0.26399 -0.32543,-0.18659 -0.19841,0.14442 0.0518,0.13488 0.15771,0.20592 0.23545,0.15787 0.0843,-0.0521 0.0693,-0.17414 -0.037,-0.30229 z m 26.37036,0.1631 c -0.1042,-0.12555 -0.14615,-0.27158 -0.0932,-0.3245 0.0529,-0.0529 0.0973,-10e-4 0.0985,0.11594 0.002,0.17878 0.0229,0.17967 0.13311,0.006 0.0827,-0.13062 0.38474,-0.20143 0.82171,-0.19267 0.65184,0.0131 0.70316,-0.0155 0.90809,-0.50596 0.16771,-0.40139 0.18925,-0.78404 0.0945,-1.67944 -0.11452,-1.08254 -0.12399,-1.10569 -0.14259,-0.34835 -0.011,0.44618 -0.0616,0.76956 -0.11255,0.71861 -0.11557,-0.11557 -0.27679,-1.87019 -0.2665,-2.90056 0.006,-0.58174 -0.0412,-0.75287 -0.19101,-0.69538 -0.15274,0.0586 -0.19871,-0.15266 -0.19871,-0.91327 0,-0.54424 0.0608,-0.98952 0.1352,-0.98952 0.0757,0 0.1158,-0.84108 0.0911,-1.90955 -0.0298,-1.29391 -0.004,-1.71641 0.0807,-1.31048 0.0973,0.46713 0.11042,0.36818 0.0597,-0.44931 -0.0358,-0.5766 -0.0666,-1.38536 -0.0684,-1.79722 -0.002,-0.41186 -0.0529,-0.6719 -0.11339,-0.57786 -0.0605,0.0941 -0.11777,-0.51252 -0.12723,-1.34792 -0.009,-0.83539 -0.0937,-2.59608 -0.18721,-3.91264 -0.0935,-1.31656 -0.17057,-3.47323 -0.17124,-4.7926 -0.002,-4.60317 -0.48109,-7.30916 -2.23725,-12.64586 -2.10172,-6.38697 -5.52314,-13.01749 -9.28009,-17.98439 -4.23956,-5.60492 -6.44045,-7.42118 -12.88315,-10.63167 -4.00602,-1.99626 -4.08346,-2.0291 -5.85152,-2.48107 -1.68446,-0.4306 -1.73794,-0.43553 -1.43465,-0.13224 0.12881,0.12881 0.29746,0.19511 0.37477,0.14732 0.0773,-0.0478 0.18933,-0.008 0.24894,0.0885 0.0677,0.10951 0.0434,0.13523 -0.0645,0.0685 -0.0951,-0.0588 -0.17291,-0.0734 -0.17291,-0.0324 0,0.12985 1.3852,1.06818 1.51916,1.02909 0.0706,-0.0206 0.11145,0.0162 0.0909,0.0818 -0.0462,0.14727 1.89191,1.91263 3.1077,2.83065 0.49423,0.37319 0.87671,0.71974 0.84994,0.77012 -0.0268,0.0504 0.0331,0.11887 0.13317,0.15221 0.11517,0.0384 0.13826,-0.01 0.063,-0.13173 -0.0785,-0.12706 -0.0594,-0.15556 0.0565,-0.084 0.0965,0.0596 0.14212,0.16215 0.1015,0.22788 -0.0406,0.0657 0.2738,0.4149 0.69871,0.77594 1.44179,1.22506 2.28996,1.97097 2.55868,2.25016 0.28729,0.29851 0.48316,0.37457 0.33114,0.12861 -0.16659,-0.26955 0.0688,-0.15751 0.52723,0.25097 0.32281,0.28762 0.42325,0.48424 0.35584,0.69661 -0.0748,0.23565 -0.0413,0.27568 0.16471,0.19665 0.20067,-0.077 0.23632,-0.0412 0.15913,0.15998 -0.0547,0.14258 -0.0565,0.21625 -0.004,0.1637 0.18321,-0.18321 0.93931,0.20083 1.02262,0.51941 0.0462,0.17656 0.12749,0.27748 0.18069,0.22427 0.11909,-0.11908 1.11158,0.93964 1.11257,1.18681 4.5e-4,0.0981 0.0785,0.22646 0.17363,0.28523 0.11632,0.0719 0.13297,0.038 0.0509,-0.10348 -0.21925,-0.37792 0.0498,-0.0657 0.44408,0.51525 0.21201,0.31242 0.34222,0.63801 0.28935,0.72354 -0.0624,0.10089 0.0234,0.11758 0.24411,0.0475 0.288,-0.0914 0.32831,-0.0624 0.26262,0.18876 -0.0532,0.20325 -0.006,0.29121 0.14936,0.27915 0.13962,-0.0108 0.24946,0.14089 0.28545,0.39427 0.0629,0.4425 -0.0771,0.52527 -0.37998,0.22465 -0.15128,-0.15017 -0.16961,-0.12795 -0.0926,0.11233 0.0947,0.29537 0.0927,0.29549 -0.1409,0.009 -0.33668,-0.4132 -0.2933,-0.17986 0.0743,0.39943 0.17112,0.2697 0.27307,0.35558 0.22655,0.19083 -0.0683,-0.24204 -0.009,-0.30396 0.31091,-0.32257 0.22338,-0.013 0.31778,0.025 0.21693,0.0873 -0.25678,0.1587 -0.29532,0.9952 -0.0434,0.94294 0.10909,-0.0226 0.15384,0.0308 0.0994,0.11888 -0.12969,0.20984 0.21499,0.62097 0.41629,0.49656 0.0887,-0.0548 0.11135,-0.0242 0.0525,0.0709 -0.13584,0.21979 0.56623,1.59621 0.95202,1.86643 0.16573,0.11609 0.26132,0.25108 0.21241,0.29999 -0.0489,0.0489 -0.0326,0.17766 0.0361,0.28611 0.0688,0.10844 0.12951,0.23087 0.135,0.27206 0.0307,0.23052 1.63197,3.23796 1.77305,3.33006 0.0927,0.0605 0.12043,0.11107 0.0616,0.11232 -0.096,0.002 0.34629,0.90131 2.00543,4.07759 0.28874,0.55276 0.46817,0.96991 0.39873,0.927 -0.0694,-0.0429 0.0971,0.41466 0.36997,1.01685 0.27291,0.60217 0.65303,1.58609 0.84471,2.18647 0.20308,0.63611 0.46254,1.15263 0.62181,1.23787 0.15708,0.0841 0.23703,0.24086 0.18799,0.36865 -0.0469,0.1223 -0.0191,0.22237 0.0617,0.22237 0.0809,0 0.1884,0.20665 0.23892,0.45923 0.0505,0.25258 0.15926,0.41757 0.24165,0.36665 0.09,-0.0556 0.11041,0.0101 0.0512,0.16441 -0.0707,0.18428 -0.0445,0.22355 0.0926,0.13879 0.14331,-0.0886 0.16445,-0.0337 0.0843,0.21884 -0.0729,0.22961 -0.0541,0.30438 0.0588,0.23457 0.10131,-0.0626 0.16581,0.0209 0.16581,0.21473 0,0.20228 -0.0678,0.28437 -0.18721,0.22656 -0.10297,-0.0499 -0.0356,0.0218 0.14977,0.15919 0.21352,0.15832 0.33698,0.40777 0.33698,0.6809 0,0.23707 0.0535,0.43103 0.11888,0.43103 0.0654,0 0.20616,0.42123 0.31285,0.93606 0.10668,0.51483 0.22946,1.03715 0.27284,1.16071 0.0434,0.12355 0.10591,0.49423 0.13895,0.82372 0.0376,0.37472 0.17405,0.68552 0.36442,0.82989 0.17842,0.1353 0.26779,0.32609 0.21598,0.4611 -0.0565,0.14735 0.0353,0.28982 0.25479,0.39557 0.2938,0.1415 0.30282,0.16674 0.0627,0.17542 -0.22827,0.008 -0.24677,0.0507 -0.0994,0.22822 0.0995,0.11995 0.13753,0.28844 0.0844,0.37443 -0.0531,0.086 -0.0477,0.23541 0.012,0.33206 0.0597,0.0967 0.11723,0.34939 0.12777,0.56164 0.0105,0.21224 0.0711,0.53711 0.13467,0.72193 0.0925,0.26898 0.0687,0.31809 -0.11892,0.24607 -0.18173,-0.0697 -0.23976,0.0231 -0.25804,0.41281 -0.013,0.27652 -0.007,0.60386 0.0142,0.72742 0.0208,0.12356 0.0331,0.42387 0.0272,0.66735 -0.006,0.24349 0.0689,0.49184 0.16605,0.5519 0.13392,0.0828 0.12821,0.19977 -0.0236,0.48345 -0.12644,0.23627 -0.17341,0.654 -0.12739,1.133 0.0401,0.41732 0.0154,0.75875 -0.0549,0.75875 -0.2166,0 -0.14099,0.45364 0.0904,0.54244 0.15139,0.0581 0.19197,0.21489 0.13254,0.51207 -0.0471,0.23559 -0.0208,0.61702 0.0584,0.84762 0.1584,0.46092 0.0925,0.84373 -0.12242,0.71092 -0.0753,-0.0466 -0.13697,0.0204 -0.13697,0.14883 0,0.12842 0.0674,0.23349 0.14976,0.23349 0.0824,0 0.14977,0.1011 0.14977,0.22466 0,0.12962 0.14255,0.22965 0.33698,0.23648 0.18534,0.006 0.25274,0.0458 0.14977,0.0874 -0.26205,0.10574 -0.23373,0.49143 0.0439,0.59798 0.2081,0.0798 0.20798,0.11426 -0.001,0.3454 -0.21098,0.23314 -0.2047,0.28859 0.0684,0.60349 0.31612,0.36449 0.40595,0.90001 0.15097,0.90001 -0.0824,0 -0.14977,0.13479 -0.14977,0.29953 0,0.16475 0.0766,0.28269 0.17023,0.2621 0.0936,-0.0206 0.22259,0.1479 0.28659,0.37442 0.0907,0.32105 0.0656,0.41186 -0.11368,0.41186 -0.1875,0 -0.19557,0.0415 -0.0436,0.22466 0.13894,0.16741 0.14136,0.22465 0.009,0.22465 -0.0973,0 -0.13529,0.0674 -0.0844,0.14977 0.1624,0.26277 0.37442,0.161 0.37442,-0.17972 0,-0.23828 0.0453,-0.28419 0.16364,-0.16585 0.11679,0.11679 0.11781,0.24928 0.004,0.46273 -0.13227,0.24714 -0.10867,0.31252 0.1359,0.37648 0.16277,0.0426 0.29595,0.15935 0.29595,0.25952 0,0.13979 -0.0531,0.13809 -0.22827,-0.007 -0.43351,-0.35978 -0.41793,0.002 0.0169,0.39238 l 0.43606,0.3909 -0.42442,-0.0966 c -0.27698,-0.0631 -0.39097,-0.0425 -0.32814,0.0592 0.0529,0.0857 0.22709,0.15577 0.38697,0.15577 0.23288,0 0.2907,0.10521 0.2907,0.52889 0,0.36549 -0.081,0.56001 -0.26209,0.62962 -0.21999,0.0845 -0.20202,0.11494 0.11189,0.18916 0.3866,0.0914 0.5035,0.49983 0.24655,0.86142 -0.0917,0.12899 -0.052,0.18721 0.12743,0.18721 0.19442,0 0.24296,0.0915 0.19149,0.36075 -0.0494,0.25838 -0.0118,0.33883 0.1323,0.28351 0.24142,-0.0926 0.25453,0.0248 0.0462,0.41396 -0.0874,0.16333 -0.095,0.2897 -0.0175,0.2897 0.0757,0 0.17074,0.12682 0.21127,0.28182 0.0916,0.35042 -0.24141,1.71213 -0.3839,1.56964 -0.15573,-0.15573 -0.12571,0.67404 0.0352,0.97482 0.23727,0.44334 0.009,1.45207 -0.44051,1.94387 -0.22831,0.24996 -0.44941,0.42019 -0.49132,0.37827 -0.0419,-0.0419 -0.11592,-0.012 -0.16445,0.0666 -0.0485,0.0785 0.0121,0.22604 0.13477,0.32784 0.12265,0.10179 0.22307,0.26107 0.22314,0.35395 1.6e-4,0.23587 1.46707,0.82539 2.07752,0.83494 0.43592,0.007 0.47915,-0.0234 0.31564,-0.22038 z m 0.99501,-12.58274 c -0.14453,-0.37662 -0.1019,-0.4738 0.0747,-0.17019 0.0874,0.15033 0.12739,0.30488 0.0888,0.34344 -0.0385,0.0385 -0.11214,-0.0394 -0.1635,-0.17325 z m -5.76095,-15.94458 c 0,-0.20593 0.034,-0.29018 0.0755,-0.18721 0.0415,0.10296 0.0415,0.27145 0,0.37442 -0.0415,0.10297 -0.0755,0.0187 -0.0755,-0.18721 z m -9.30932,-21.26715 c -0.13498,-0.0872 -0.15345,-0.1461 -0.0463,-0.14748 0.0981,-10e-4 0.22003,0.0651 0.27094,0.14748 0.11491,0.18594 0.0631,0.18594 -0.22466,0 z m -1.34791,-2.53723 c 0,-0.0775 0.0666,-0.1821 0.14805,-0.23243 0.0849,-0.0525 0.11001,0.008 0.0589,0.14093 -0.0996,0.25946 -0.20691,0.30693 -0.20691,0.0915 z m -5.99075,-7.50611 c 0,-0.0872 0.0674,-0.11696 0.14977,-0.0661 0.0824,0.0509 0.14977,0.12228 0.14977,0.15861 0,0.0363 -0.0674,0.066 -0.14977,0.066 -0.0824,0 -0.14977,-0.0714 -0.14977,-0.15861 z m -9.82443,56.94067 c -0.0502,-1.45238 -0.15731,-2.76463 -0.23798,-2.91612 -0.0807,-0.15148 -0.22111,-2.53042 -0.31209,-5.28652 -0.15505,-4.69716 -0.14878,-5.04113 0.10007,-5.49066 l 0.26549,-0.47958 -0.53697,0.55944 c -0.52291,0.54478 -0.53688,0.5899 -0.5334,1.72234 0.005,1.51677 0.24073,5.8326 0.46912,8.57645 0.1717,2.06284 0.22309,3.08882 0.25997,5.19045 0.0148,0.84562 0.0411,0.91552 0.31664,0.84346 0.29088,-0.0761 0.29755,-0.16276 0.20915,-2.71926 z m 9.30024,1.92726 c 0.0509,-0.0824 -0.008,-0.14977 -0.13209,-0.14977 -0.12356,0 -0.26631,0.0674 -0.31721,0.14977 -0.0509,0.0824 0.008,0.14977 0.13209,0.14977 0.12356,0 0.2663,-0.0674 0.31721,-0.14977 z m -2.31308,-0.35249 c -0.0737,-0.19387 -0.26606,-0.59887 -0.42746,-0.9 l -0.29345,-0.54751 -0.24279,0.37054 c -0.28329,0.43236 -0.29239,0.53065 -0.0967,1.04529 0.11839,0.31139 0.24538,0.38417 0.67025,0.38417 0.48856,0 0.51509,-0.024 0.39018,-0.35249 z m -10.18404,0.0484 c 0.15862,-0.0849 0.41056,-0.40716 0.55985,-0.71615 0.51386,-1.06359 0.0464,-8.66735 -0.61864,-10.06261 -0.26201,-0.54971 -0.53914,-0.46529 -1.35704,0.41338 l -0.73331,0.7878 0.57519,-0.24033 c 0.5334,-0.22287 0.58865,-0.22194 0.76038,0.0129 0.35404,0.48418 0.41073,2.15361 0.14492,4.26813 -0.16572,1.31827 -0.22263,2.46489 -0.16354,3.29491 0.12945,1.81812 0.12635,1.79723 0.26674,1.79723 0.0703,0 0.085,0.13479 0.0327,0.29953 -0.10606,0.33416 0.0833,0.38575 0.53275,0.14519 z m 13.23161,-0.27134 c 0.0396,-0.13655 0.0472,-1.15811 0.017,-2.27014 -0.0302,-1.11203 0.0396,-3.42134 0.15519,-5.1318 0.20823,-3.08141 0.15156,-6.77965 -0.10632,-6.93904 -0.0695,-0.043 -0.13057,0.78517 -0.13569,1.84029 -0.005,1.05511 -0.0775,3.73808 -0.16088,5.96214 -0.23093,6.16155 -0.2335,6.93668 -0.0227,6.85615 0.0998,-0.0381 0.21388,-0.18106 0.25345,-0.3176 z m -39.11341,-0.61949 c -0.10005,-0.16021 -0.12075,-0.32571 -0.0465,-0.37162 0.0737,-0.0455 0.17217,0.002 0.21894,0.10539 0.0468,0.10348 0.0694,0.0648 0.0502,-0.086 -0.0234,-0.18404 -0.29832,-0.36677 -0.83646,-0.55589 -0.44091,-0.15494 -1.12077,-0.4865 -1.5108,-0.73677 -0.39002,-0.25028 -0.75171,-0.45506 -0.80375,-0.45506 -0.052,0 -0.68641,-0.3474 -1.4097,-0.77199 -3.76549,-2.21048 -7.64615,-5.9005 -10.05606,-9.56205 -1.07229,-1.6292 -2.53617,-4.56173 -2.99049,-5.99074 -1.14183,-3.59143 -1.51285,-5.75107 -1.62625,-9.46604 -0.0851,-2.78953 0.0959,-5.06663 0.57832,-7.27145 0.0947,-0.43292 0.12765,-0.83168 0.0732,-0.88614 -0.0545,-0.0545 -0.099,0.0942 -0.099,0.33033 0,0.50663 -0.21467,0.34038 -0.36108,-0.27963 -0.0656,-0.27792 -0.0465,-0.39119 0.0555,-0.32814 0.23234,0.1436 0.18808,-0.0603 -0.0689,-0.31722 -0.19969,-0.19969 -0.22465,-0.18921 -0.22465,0.0944 0,0.17549 -0.0674,0.27742 -0.14977,0.22651 -0.0853,-0.0527 -0.14977,0.0763 -0.14977,0.29954 0,0.21565 -0.0505,0.36086 -0.11232,0.32268 -0.0618,-0.0382 -0.12031,0.24427 -0.13007,0.62767 -0.0197,0.77363 -0.19064,1.55542 -0.36541,1.67104 -0.0626,0.0414 -0.13127,0.41211 -0.15255,0.82373 -0.0213,0.41162 -0.10058,0.82969 -0.17625,0.92905 -0.0757,0.0994 -0.0923,0.25395 -0.0369,0.34354 0.0554,0.0896 0.0284,0.24999 -0.06,0.35644 -0.18215,0.21947 -0.3066,5.04864 -0.12725,4.93743 0.0991,-0.0615 0.12505,0.16691 0.17538,1.54474 0.006,0.17802 0.0624,0.37459 0.12416,0.43682 0.0618,0.0622 0.11904,0.45575 0.12725,0.87449 0.0119,0.60572 0.0394,0.68479 0.13484,0.38689 0.10718,-0.33465 0.12455,-0.31079 0.16361,0.22466 0.024,0.32949 0.0449,0.75071 0.0465,0.93605 0.001,0.18534 0.0633,0.33698 0.13724,0.33698 0.074,0 0.0908,0.17414 0.0373,0.38697 -0.0702,0.27986 -0.0475,0.35629 0.0822,0.27612 0.12663,-0.0783 0.15383,-0.0132 0.0925,0.22126 -0.057,0.21799 -0.01,0.36169 0.13732,0.41815 0.15363,0.0589 0.19521,0.2014 0.13214,0.45269 -0.0527,0.20983 -0.0327,0.32999 0.0467,0.28093 0.0763,-0.0472 0.17383,0.0484 0.21669,0.2123 0.0429,0.16393 0.0176,0.26077 -0.0561,0.2152 -0.0737,-0.0456 -0.0941,0.0213 -0.0452,0.1487 0.0489,0.12736 0.14292,0.19816 0.20897,0.15734 0.0661,-0.0408 0.088,0.0485 0.0488,0.19853 -0.0392,0.15002 0.0305,0.35723 0.15483,0.46046 0.12439,0.10324 0.18926,0.28387 0.14416,0.4014 -0.0451,0.11754 -0.003,0.2137 0.0926,0.2137 0.096,0 0.14174,0.0532 0.10154,0.11829 -0.1338,0.21649 1.39049,3.20225 1.57621,3.08746 0.10406,-0.0643 0.13242,-0.0413 0.0712,0.0577 -0.11535,0.18664 1.29264,2.66366 1.74178,3.06424 0.16162,0.14415 0.23585,0.26313 0.16494,0.26439 -0.0709,10e-4 -0.0568,0.0518 0.0313,0.11233 0.0881,0.0605 0.43347,0.48071 0.76742,0.93376 0.33395,0.45305 1.01668,1.25172 1.51718,1.77481 0.50051,0.52309 0.93023,0.99487 0.95493,1.04838 0.14289,0.30955 1.5022,1.3667 1.64436,1.27884 0.0984,-0.0608 0.12794,-0.0378 0.0706,0.055 -0.11417,0.18474 1.08081,1.11488 1.27674,0.99378 0.072,-0.0445 0.1124,0.008 0.0898,0.11743 -0.0228,0.1097 0.0753,0.18917 0.21933,0.17781 0.14326,-0.0113 0.22959,0.0295 0.19182,0.0906 -0.12089,0.19562 0.63435,0.79343 0.84709,0.6705 0.10906,-0.063 0.14815,-0.0593 0.0868,0.008 -0.0613,0.0676 0.0133,0.19639 0.1658,0.28611 0.15248,0.0897 0.56247,0.35312 0.91109,0.58532 0.34862,0.23219 0.75974,0.43166 0.9136,0.44325 0.15386,0.0116 0.24937,0.0514 0.21224,0.0886 -0.14229,0.14229 0.51885,0.46434 0.77959,0.37975 0.22812,-0.074 0.23647,-0.0618 0.0496,0.0726 -0.16795,0.12082 -0.1747,0.16218 -0.0268,0.1639 0.10884,10e-4 0.299,0.10339 0.42256,0.22694 0.20153,0.20153 0.831,0.30761 1.37899,0.23239 0.11124,-0.0153 0.16237,0.0367 0.11365,0.11558 -0.0487,0.0788 0.16355,0.26176 0.47172,0.40647 0.30817,0.14473 0.75533,0.4255 0.99369,0.62396 0.50782,0.42279 0.89315,0.25451 0.57687,-0.25193 z m -0.40175,0.15698 c -0.25107,-0.27743 -0.24899,-0.28581 0.0517,-0.20718 0.17233,0.0451 0.31333,0.17517 0.31333,0.28912 0,0.27409 -0.0537,0.26203 -0.365,-0.0819 z m -0.71147,-0.56203 c 0.10812,-0.0433 0.23729,-0.0379 0.28706,0.0118 0.0498,0.0498 -0.0387,0.0852 -0.19657,0.0787 -0.17448,-0.007 -0.20996,-0.0427 -0.0905,-0.0905 z m -19.26288,-30.07608 c 0.003,-0.24712 0.0366,-0.33008 0.0746,-0.18436 0.038,0.14572 0.0355,0.3479 -0.006,0.4493 -0.041,0.1014 -0.0721,-0.0178 -0.069,-0.26494 z m 1.03101,-0.16225 c 0.007,-0.17447 0.0427,-0.20996 0.0905,-0.0905 0.0433,0.10811 0.0379,0.23728 -0.0118,0.28705 -0.0498,0.0498 -0.0852,-0.0387 -0.0787,-0.19657 z m -0.001,-3.0115 c -0.006,-0.18047 0.0569,-0.36979 0.1393,-0.4207 0.17714,-0.10948 0.17714,0.0371 0,0.44931 -0.1241,0.28879 -0.1291,0.28776 -0.13925,-0.0286 z m 0.31408,-0.68796 c -0.11793,-0.14332 -0.1578,-0.37421 -0.0975,-0.56436 0.14157,-0.44605 0.40907,-0.14534 0.34619,0.38916 -0.0437,0.37146 -0.0713,0.39088 -0.24874,0.1752 z m -0.001,-1.30531 c 0,-0.20593 0.034,-0.29018 0.0755,-0.18721 0.0415,0.10297 0.0415,0.27146 0,0.37442 -0.0415,0.10297 -0.0755,0.0187 -0.0755,-0.18721 z m 77.40677,35.20448 c 0,-0.0775 -0.0674,-0.18258 -0.14977,-0.23349 -0.0824,-0.0509 -0.14977,0.0125 -0.14977,0.14093 0,0.12841 0.0674,0.23349 0.14977,0.23349 0.0824,0 0.14977,-0.0634 0.14977,-0.14093 z m 3.69676,-1.98392 c -0.0478,-0.11947 -0.0833,-0.084 -0.0905,0.0905 -0.007,0.15788 0.0289,0.24634 0.0787,0.19657 0.0498,-0.0498 0.0551,-0.17894 0.0118,-0.28706 z m -59.40708,-1.91891 c 0.0145,0.12356 0.087,-0.0327 0.16095,-0.34722 0.0832,-0.3535 0.0794,-0.67493 -0.01,-0.84175 -0.0794,-0.14843 -0.19011,-0.81755 -0.24593,-1.48694 -0.0574,-0.68856 -0.18474,-1.28615 -0.29319,-1.37615 -0.15425,-0.12802 -0.17691,0.11316 -0.11601,1.23509 0.0553,1.01846 0.0131,1.59487 -0.15663,2.13891 -0.21237,0.68088 -0.21124,0.77687 0.0131,1.11933 l 0.24544,0.37459 0.18785,-0.52025 c 0.10332,-0.28615 0.19975,-0.41917 0.2143,-0.29561 z m 0.5565,-2.20361 c -0.0298,-0.47666 -0.0545,-0.12529 -0.0548,0.78081 -3e-4,0.9061 0.0241,1.29609 0.0542,0.86664 0.0302,-0.42945 0.0304,-1.17081 5e-4,-1.64745 z m 58.60138,-0.49738 -0.16112,-0.36927 0.0771,0.37443 c 0.0424,0.20593 0.0893,0.6103 0.10429,0.89861 l 0.0272,0.52419 0.0568,-0.52935 c 0.0312,-0.29114 -0.0157,-0.69551 -0.10429,-0.89861 z m -47.85369,-4.70586 c 0.65898,-0.11684 1.53207,-0.28746 1.94021,-0.37917 2.43699,-0.54756 5.77734,-2.58191 7.74871,-4.71916 1.08549,-1.17683 1.46409,-1.65062 1.46645,-1.83517 0.002,-0.10297 0.0652,-0.18721 0.14207,-0.18721 0.0768,0 0.18616,-0.15164 0.24298,-0.33698 0.0568,-0.18534 0.17635,-0.42802 0.26562,-0.5393 0.0893,-0.11128 0.17543,-0.27977 0.19146,-0.37442 0.016,-0.0947 0.11442,-0.37429 0.21866,-0.62141 0.20989,-0.49755 0.24343,-0.60067 0.2708,-0.83256 0.0103,-0.0872 0.0976,-0.10988 0.19394,-0.0503 0.11781,0.0728 0.14389,0.0267 0.0796,-0.14093 -0.0526,-0.13707 -0.0448,-0.24922 0.0173,-0.24922 0.0621,0 0.12425,-0.11795 0.13802,-0.2621 0.0138,-0.14415 0.20664,-0.90235 0.42861,-1.6849 0.22195,-0.78254 0.43129,-1.72608 0.4652,-2.09676 0.0339,-0.37068 0.0985,-0.77505 0.14347,-0.89861 0.11713,-0.32157 0.1069,-2.59856 -0.0168,-3.74421 -0.0578,-0.53543 -0.13099,-1.21564 -0.16258,-1.51159 -0.0316,-0.29596 -0.16266,-0.848 -0.29125,-1.22677 -0.1286,-0.37877 -0.22085,-0.74319 -0.20501,-0.80982 0.037,-0.15574 -0.42846,-1.26868 -0.89464,-2.13904 -0.19972,-0.37287 -0.58443,-1.09286 -0.85491,-1.59995 -0.27048,-0.5071 -0.61605,-1.05186 -0.76794,-1.21057 -0.15188,-0.15871 -0.65727,-0.68735 -1.12309,-1.17476 -1.32994,-1.39158 -2.34448,-2.28137 -2.90388,-2.54683 -0.28322,-0.13439 -0.48617,-0.29092 -0.451,-0.34782 0.0352,-0.0569 -0.23447,-0.19159 -0.59923,-0.29929 -0.36474,-0.1077 -0.62602,-0.25593 -0.58061,-0.3294 0.0454,-0.0735 -0.006,-0.13381 -0.1135,-0.13409 -0.10782,-3e-4 -0.67084,-0.19401 -1.25115,-0.43049 -0.58031,-0.23649 -1.62495,-0.52098 -2.32141,-0.63221 -1.63126,-0.26052 -6.84908,-0.24239 -6.42114,0.0223 0.0732,0.0453 -0.38817,0.20354 -1.02534,0.35165 -1.98472,0.46134 -5.49685,2.01716 -5.20727,2.30675 0.0467,0.0467 0.16463,0.005 0.26211,-0.0924 0.0975,-0.0975 0.24171,-0.17722 0.32053,-0.17722 0.0788,0 -0.33098,0.33307 -0.91066,0.74016 -1.34565,0.94501 -2.73207,2.22868 -3.42158,3.16797 -0.29715,0.40481 -0.59411,0.70274 -0.6599,0.66208 -0.0658,-0.0406 -0.11038,0.0417 -0.0991,0.18294 0.0113,0.14128 -0.0581,0.2585 -0.15419,0.26048 -0.0961,0.002 -0.2309,0.065 -0.29954,0.13995 -0.0737,0.0805 -0.0402,0.0873 0.0818,0.0166 0.14134,-0.0819 0.18472,-0.054 0.13729,0.0883 -0.0381,0.11442 -0.16205,0.20805 -0.27534,0.20805 -0.32858,0 -1.60586,2.70703 -2.04932,4.3433 -0.37202,1.37264 -0.40554,1.72277 -0.40159,4.19351 0.004,2.42456 0.0434,2.84067 0.39307,4.13505 0.21381,0.79157 0.63973,2.02342 0.94647,2.73745 0.54703,1.27337 2.04741,3.68208 2.77248,4.45097 0.20188,0.21408 0.74054,0.78669 1.197,1.27248 1.4751,1.56983 2.08903,2.01608 4.03755,2.93483 1.78775,0.84295 5.01732,1.55996 7.1889,1.59605 0.53543,0.009 1.51267,-0.0794 2.17165,-0.19626 z m -4.58061,-4.09298 c -0.68474,-0.32781 -0.92386,-0.57386 -1.32853,-1.36708 -0.28997,-0.56841 -0.3158,-0.7819 -0.22532,-1.86272 0.0562,-0.6714 0.0957,-1.60107 0.0879,-2.06592 -0.008,-0.46485 0.085,-1.17251 0.20634,-1.57257 0.2859,-0.94236 0.28056,-1.31766 -0.0223,-1.56904 -0.2174,-0.18043 -0.23478,-0.16824 -0.14837,0.10401 0.069,0.21752 -0.009,0.40911 -0.26589,0.65014 -0.20008,0.18796 -0.44961,0.55412 -0.55453,0.8137 -0.10491,0.25958 -0.23184,0.50565 -0.28206,0.54684 -0.0502,0.0412 -0.55285,1.10267 -1.11695,2.35886 -1.04548,2.3282 -1.27713,2.60407 -1.72923,2.05931 -0.10255,-0.12355 -0.27929,-0.22465 -0.39276,-0.22465 -0.11347,0 -0.20631,-0.0547 -0.20631,-0.12153 0,-0.0668 -0.13392,-0.26526 -0.29759,-0.44094 -0.4412,-0.47358 -0.96613,-1.54884 -0.81095,-1.66118 0.0743,-0.0538 0.32405,-0.47652 0.55507,-0.93945 0.23101,-0.46293 0.55114,-0.98243 0.7114,-1.15445 0.16025,-0.17201 0.29287,-0.36611 0.2947,-0.43134 0.002,-0.0652 0.13513,-0.28708 0.29621,-0.49301 0.16108,-0.20593 0.29437,-0.48062 0.29621,-0.61041 0.002,-0.12979 0.16974,-0.39232 0.37313,-0.5834 0.2034,-0.19108 0.32738,-0.42187 0.27552,-0.51286 -0.0519,-0.091 -0.0394,-0.11575 0.0277,-0.055 0.0671,0.0607 0.31033,-0.0867 0.54057,-0.32762 0.23023,-0.24092 0.54795,-0.50726 0.70603,-0.59187 0.20427,-0.10931 0.26652,-0.26322 0.21514,-0.53194 l -0.0723,-0.37811 -0.29946,0.3807 c -0.1647,0.20938 -0.33402,0.34614 -0.37626,0.3039 -0.17104,-0.17104 -1.75228,0.83041 -4.42488,2.80239 -0.88844,0.65554 -1.63837,1.1662 -1.6665,1.13481 -0.15342,-0.1712 -0.67933,-1.35723 -0.89704,-2.02298 -0.24322,-0.74375 -0.24135,-0.78422 0.0597,-1.29448 0.24954,-0.42294 0.68594,-0.71893 2.21496,-1.50226 2.83055,-1.45011 2.76884,-1.41416 2.55199,-1.48644 -0.19304,-0.0643 1.31605,-0.2865 2.19091,-0.32252 0.35181,-0.0145 0.46375,0.0584 0.54671,0.3562 l 0.10431,0.37442 0.0149,-0.39474 c 0.0201,-0.53201 0.35122,-1.14061 0.57919,-1.06462 0.11635,0.0388 0.15108,-0.0263 0.0938,-0.17558 -0.0501,-0.13044 -0.021,-0.23716 0.0647,-0.23716 0.0856,0 0.19599,-0.12694 0.24523,-0.28209 0.0492,-0.15515 0.29618,-0.49833 0.54875,-0.76262 0.4103,-0.42934 0.44771,-0.44317 0.35126,-0.12977 l -0.10795,0.35075 0.35558,-0.32046 c 0.31824,-0.2868 1.79645,-1.10234 1.99806,-1.10234 0.0439,0 0.0799,0.0674 0.0799,0.14977 0,0.0824 -0.0735,0.14977 -0.16341,0.14977 -0.38752,0 -1.93948,1.26792 -2.22689,1.81932 -0.39968,0.7668 -0.45726,3.06354 -0.0731,2.91613 0.12956,-0.0497 0.19309,-0.0256 0.14354,0.0546 -0.0489,0.0791 0.0319,0.3281 0.17944,0.55333 0.14757,0.22523 0.24641,0.44448 0.21964,0.48723 -0.0268,0.0427 0.0331,0.10501 0.13318,0.13834 0.11782,0.0393 0.13969,-0.0121 0.0621,-0.14602 -0.0659,-0.11365 -0.0621,-0.15414 0.008,-0.09 0.27275,0.24822 0.19049,0.52164 -0.13354,0.44386 -0.23118,-0.0555 -0.27782,-0.0302 -0.1666,0.0903 0.0849,0.092 0.38185,0.21282 0.6598,0.2684 0.40679,0.0814 0.48368,0.06 0.39418,-0.10952 -0.0611,-0.11582 0.028,-0.0421 0.19804,0.16384 0.17007,0.20593 0.3107,0.45866 0.31254,0.56163 0.004,0.23015 0.21793,0.23641 0.81642,0.0239 0.34089,-0.12105 0.57623,-0.11678 0.90925,0.0165 0.41159,0.16472 0.42416,0.18981 0.14976,0.29886 -0.16474,0.0655 -0.45609,0.0832 -0.64744,0.0394 -0.27656,-0.0633 -0.33798,-0.0233 -0.29953,0.19511 0.0392,0.22262 -0.0653,0.28408 -0.55053,0.32394 -0.79599,0.0654 -2.03731,-0.57688 -2.74817,-1.4219 -0.62897,-0.74767 -0.94682,-0.85439 -0.44603,-0.14977 1.7148,2.4128 5.39804,2.73326 7.5875,0.66016 1.1721,-1.10981 1.80733,-2.95746 1.53951,-4.47788 -0.19566,-1.11077 -0.60018,-1.96041 -1.28813,-2.70555 -0.57655,-0.62447 -0.5945,-0.67388 -0.36435,-1.0026 0.12313,-0.17587 0.1367,-0.15147 0.0625,0.11232 -0.40008,1.42231 1.20359,-1.49937 3.00577,-5.47614 0.33367,-0.7363 0.45226,-0.8855 0.53567,-0.67396 0.0589,0.14943 0.11186,0.21496 0.11764,0.14562 0.006,-0.0693 0.32696,0.26239 0.71369,0.73716 0.97825,1.2009 0.97529,1.82702 -0.0184,3.88333 -0.39425,0.81589 -0.87779,1.69446 -1.07451,1.95238 -0.19673,0.25792 -0.32431,0.51355 -0.28352,0.56807 0.0408,0.0545 0.0311,0.0673 -0.0215,0.0284 -0.0526,-0.0389 -0.29367,0.0959 -0.53568,0.29954 -0.24201,0.20363 -0.5584,0.37025 -0.7031,0.37025 -0.39491,0 -0.45409,0.12995 -0.28288,0.6211 0.15378,0.44113 0.15882,0.44289 0.47452,0.16565 0.17549,-0.15413 0.89195,-0.64596 1.59212,-1.09296 1.4917,-0.95233 3.97009,-2.74835 4.11411,-2.98139 0.15175,-0.24552 0.35012,-0.0547 0.66342,0.63828 0.49707,1.09941 0.60423,1.69045 0.41863,2.309 -0.22872,0.76229 -0.33148,0.83726 -2.91525,2.12685 -0.55215,0.27559 -0.742,0.4413 -0.63181,0.5515 0.1102,0.1102 0.01,0.14228 -0.33392,0.10676 -0.41508,-0.0429 -0.4449,-0.0269 -0.19191,0.1026 0.23189,0.11874 0.1533,0.13511 -0.34801,0.0725 -0.44298,-0.0553 -0.61596,-0.0298 -0.54758,0.0808 0.0689,0.11146 -0.18579,0.14268 -0.81922,0.10044 -0.7686,-0.0513 -0.94265,-0.0175 -1.06244,0.20637 -0.0788,0.14722 -0.14324,0.3395 -0.14324,0.42729 0,0.30787 3.55885,0.12269 7.37755,-0.38387 l 0.73941,-0.0981 -0.0467,1.03219 c -0.0468,1.03475 -0.23682,1.54628 -0.92234,2.48299 -0.3322,0.45392 -0.33761,0.45529 -1.4373,0.36397 -0.87214,-0.0724 -1.0716,-0.0525 -0.95023,0.0952 0.11904,0.1448 -0.0443,0.19647 -0.72618,0.22969 -0.66852,0.0326 -1.03273,-0.0352 -1.5168,-0.28213 -0.35037,-0.17875 -0.82041,-0.33942 -1.04453,-0.35705 -0.22413,-0.0176 -0.57745,-0.1434 -0.78516,-0.2795 -0.20771,-0.1361 -0.43833,-0.24745 -0.51249,-0.24745 -0.0742,0 -0.2995,-0.12952 -0.50075,-0.28782 -0.36177,-0.28457 -0.36804,-0.28442 -0.55424,0.0137 -0.15906,0.25469 -0.14607,0.33382 0.0836,0.5092 0.47977,0.36634 4.11741,2.10644 5.64286,2.69932 0.81231,0.3157 1.40202,0.59898 1.31048,0.62949 -0.0915,0.0305 -0.16645,0.15097 -0.16645,0.26766 0,0.11669 -0.0674,0.21217 -0.14977,0.21217 -0.0824,0 -0.14977,0.10507 -0.14977,0.23349 0,0.12842 -0.0679,0.19155 -0.15083,0.14028 -0.083,-0.0513 -0.18911,0.007 -0.23589,0.12846 -0.0931,0.24272 -1.18456,1.01078 -1.50266,1.05747 -0.10929,0.016 -0.24559,0.076 -0.30289,0.13334 -0.27076,0.27076 -0.98073,0.06 -1.79757,-0.53364 -0.4827,-0.35081 -1.27438,-0.90683 -1.75928,-1.23559 -1.35208,-0.91674 -2.78917,-2.41848 -2.54654,-2.66111 0.0495,-0.0495 -0.14786,-0.017 -0.43853,0.0722 l -0.52849,0.1622 0.2674,0.39026 c 0.14706,0.21464 0.71244,1.07211 1.25639,1.90548 0.54396,0.83337 1.38207,2.0465 1.86248,2.69583 1.19796,1.61921 1.1595,1.51342 0.66044,1.81692 -0.79188,0.48156 -3.17108,0.22837 -3.17108,-0.33746 0,-0.10396 -0.12441,-0.22155 -0.27647,-0.26132 -0.25867,-0.0676 -1.0324,-1.40063 -0.9563,-1.64753 0.019,-0.0618 -0.0226,-0.11233 -0.0924,-0.11233 -0.0699,0 -0.25027,-0.28643 -0.40092,-0.63652 -0.15064,-0.35008 -0.39773,-0.92138 -0.5491,-1.26956 -0.15136,-0.34818 -0.30122,-0.92104 -0.33302,-1.27303 -0.0318,-0.352 -0.0645,-0.68268 -0.0727,-0.73485 -0.008,-0.0522 -0.18338,-0.12708 -0.38932,-0.16645 l -0.37442,-0.0716 0.004,1.43948 c 0.003,1.30289 0.11949,2.88562 0.38815,5.29601 l 0.096,0.86117 -0.58098,-0.005 c -0.31954,-0.003 -0.82256,-0.12073 -1.11783,-0.2621 z m 1.49756,-8.35669 c 0.16251,-0.16251 -0.15591,-0.23344 -0.34468,-0.0768 -0.1465,0.12159 -0.24584,0.12838 -0.312,0.0213 -0.15277,-0.24719 -0.37954,-0.18319 -0.27903,0.0788 0.0653,0.17023 0.19928,0.20849 0.48174,0.1376 0.21519,-0.054 0.41948,-0.12642 0.45397,-0.16092 z m -2.83282,-1.76903 c 0,-0.0324 -0.10459,-0.099 -0.23243,-0.14805 -0.13328,-0.0512 -0.1934,-0.0261 -0.14093,0.0589 0.088,0.14231 0.37336,0.21049 0.37336,0.0892 z m -0.82344,-0.69129 c 0.0634,-0.28845 0.16196,-0.41285 0.274,-0.34567 0.12515,0.075 0.12342,0.0411 -0.006,-0.11896 -0.22076,-0.27298 0.12336,-1.98873 0.57147,-2.84936 0.30611,-0.58791 0.35785,-0.87822 0.1565,-0.87822 -0.20694,0 -0.62006,1.16535 -1.00779,2.84287 -0.41068,1.77685 -0.41357,1.79995 -0.22497,1.79995 0.0758,0 0.18241,-0.20277 0.23684,-0.45061 z m 4.24004,2.89437 c 0.10812,-0.0433 0.23729,-0.0379 0.28706,0.0118 0.0498,0.0498 -0.0387,0.0852 -0.19657,0.0787 -0.17448,-0.007 -0.20996,-0.0427 -0.0905,-0.0905 z m 1.92572,-0.91096 c 0.047,-0.18662 0.14478,-0.37594 0.2172,-0.4207 0.20497,-0.12668 0.15504,0.14732 -0.0855,0.4693 -0.20955,0.28047 -0.21419,0.27876 -0.13169,-0.0486 z m 0.54401,0.14586 c -0.11825,-0.0752 -0.13178,-0.18913 -0.0397,-0.33469 0.11535,-0.1824 0.13997,-0.17222 0.14187,0.0586 0.002,0.26912 0.0173,0.26964 0.41415,0.0143 l 0.41187,-0.26507 -0.28531,0.32273 c -0.31219,0.35313 -0.37641,0.37352 -0.64284,0.20415 z m -0.85849,-0.33074 c 0.0539,-0.20593 0.15779,-0.43845 0.2309,-0.5167 0.21374,-0.22876 0.14815,0.0994 -0.10327,0.5167 l -0.22559,0.37442 0.098,-0.37442 z m 1.27748,-0.25528 c 0.10906,-0.18159 0.23052,-0.29793 0.26992,-0.25853 0.0394,0.0394 -0.0498,0.18797 -0.19828,0.33017 -0.25789,0.24701 -0.26108,0.24382 -0.0716,-0.0716 z m -0.31457,-0.15072 c 0,-0.086 0.11795,-0.24889 0.2621,-0.36194 0.24244,-0.19014 0.24561,-0.18309 0.0424,0.094 -0.12084,0.16475 -0.23878,0.32762 -0.26209,0.36195 -0.0233,0.0343 -0.0424,-0.008 -0.0424,-0.094 z m 0.89861,-0.007 c 0,-0.0824 0.1011,-0.23367 0.22466,-0.33622 0.12531,-0.104 0.22465,-0.12022 0.22465,-0.0367 0,0.0824 -0.10109,0.23367 -0.22465,0.33622 -0.12532,0.104 -0.22466,0.12022 -0.22466,0.0367 z m -0.268,-0.57598 c -0.10621,-0.11525 -0.12704,-0.20955 -0.0463,-0.20955 0.15552,0 0.38066,0.2849 0.29183,0.36929 -0.0289,0.0274 -0.13934,-0.0445 -0.24556,-0.15974 z m -3.32644,-1.66847 c -0.62427,-0.24275 -0.76799,-0.99913 -0.28778,-1.51457 0.35776,-0.38401 0.80541,-0.32641 1.22383,0.1575 0.35445,0.40991 0.32999,0.66495 -0.10552,1.10046 -0.38074,0.38075 -0.4535,0.40322 -0.83053,0.25661 z m -5.16702,-1.53645 c -0.0509,-0.0824 0.0165,-0.14977 0.14976,-0.14977 0.13328,0 0.20068,0.0674 0.14977,0.14977 -0.0509,0.0824 -0.1183,0.14977 -0.14977,0.14977 -0.0315,0 -0.0989,-0.0674 -0.14976,-0.14977 z m -7.86287,-0.73522 c 0,-0.8308 0.39842,-2.84552 0.60672,-3.06801 0.069,-0.0737 0.0837,0.0274 0.0329,0.22465 -0.0828,0.32086 -0.0661,0.33694 0.15815,0.153 0.13784,-0.11305 0.2586,-0.34893 0.26834,-0.52419 0.0132,-0.23657 0.0472,-0.20291 0.13205,0.13067 0.10771,0.42329 0.11597,0.42763 0.14258,0.0749 0.0261,-0.34625 0.0379,-0.35189 0.15696,-0.0749 0.0708,0.16475 0.13346,0.2201 0.13924,0.12301 0.007,-0.11991 0.23868,-0.15377 0.72193,-0.10558 1.21547,0.12121 2.93237,0.23978 3.5165,0.24284 0.30721,0.002 0.52226,0.0617 0.47791,0.13343 -0.0443,0.0718 -0.0132,0.13049 0.0691,0.13049 0.0824,0 0.19142,-0.0674 0.24233,-0.14977 0.0509,-0.0824 0.17283,-0.14445 0.27094,-0.13794 0.12767,0.008 0.12489,0.0334 -0.01,0.0877 -0.10348,0.0417 -0.15187,0.13455 -0.10753,0.20629 0.0443,0.0717 0.17273,0.0951 0.28532,0.0519 0.11259,-0.0432 0.24988,-0.005 0.30509,0.0839 0.0552,0.0893 0.16312,0.12365 0.2398,0.0763 0.0767,-0.0474 0.13942,-0.0148 0.13942,0.0725 0,0.0872 0.13479,0.15861 0.29954,0.15861 0.16474,0 0.29954,0.0674 0.29954,0.14977 0,0.23039 0.40664,0.17742 0.4997,-0.0651 0.0989,-0.25781 -0.88312,-0.8879 -1.14772,-0.73637 -0.0966,0.0554 -0.12413,0.0439 -0.0611,-0.0255 0.10826,-0.11915 -1.9859,-1.20738 -4.58019,-2.38009 l -1.17066,-0.52917 0.4813,-0.71539 c 0.63331,-0.94133 1.20122,-1.54742 1.35874,-1.45007 0.0698,0.0431 0.12685,0.0136 0.12685,-0.0656 0,-0.0792 0.20898,-0.21681 0.46439,-0.30584 0.40229,-0.14024 0.55753,-0.10811 1.16071,0.24025 0.38297,0.22118 0.73001,0.43908 0.7712,0.48422 0.23351,0.25594 1.46269,1.16718 1.68489,1.24909 0.14416,0.0531 0.2621,0.16613 0.2621,0.25108 0,0.085 0.0661,0.15448 0.147,0.15448 0.22704,0 1.48074,0.95317 1.49118,1.13372 0.0158,0.27245 0.84617,1.11281 1.09962,1.11281 0.64865,0 0.43756,-0.48194 -1.4432,-3.29492 -0.57828,-0.86491 -1.34202,-1.96751 -1.6972,-2.45022 -0.35518,-0.4827 -0.64578,-0.93308 -0.64578,-1.00084 0,-0.17603 0.38987,-0.27567 1.4639,-0.37414 0.78585,-0.072 1.05011,-0.031 1.614,0.25062 0.73194,0.36554 1.29729,1.00764 1.66387,1.88974 0.12836,0.30887 0.44776,0.86486 0.70979,1.23554 0.58606,0.82906 0.82547,1.51069 0.86105,2.45151 0.0216,0.57186 0.0899,0.74478 0.32873,0.83315 0.19569,0.0724 -0.13176,0.14491 -0.9334,0.20673 -0.91766,0.0708 -1.41796,0.19489 -1.94779,0.48326 -1.38805,0.75547 -2.34103,1.96278 -2.63415,3.33714 -0.0686,0.32178 -0.17517,0.47079 -0.30185,0.42218 -0.10768,-0.0413 -0.22626,-0.0447 -0.26349,-0.007 -0.0373,0.0372 -1.3075,0.0931 -2.82281,0.12421 -1.5153,0.0311 -3.24373,0.10674 -3.84094,0.16813 l -1.08582,0.11164 0,-0.77823 z m 16.41511,-0.43796 c -0.0424,-0.0686 0.018,-0.12482 0.13434,-0.12482 0.11631,0 0.17677,0.0562 0.13434,0.12482 -0.0424,0.0686 -0.10288,0.1248 -0.13434,0.1248 -0.0314,0 -0.0919,-0.0562 -0.13434,-0.1248 z m 0.52058,-0.41187 c 0.007,-0.17447 0.0427,-0.20996 0.0905,-0.0905 0.0433,0.10811 0.0379,0.23728 -0.0118,0.28705 -0.0498,0.0498 -0.0852,-0.0387 -0.0787,-0.19657 z m -1.75843,-0.96079 c -0.1781,-0.0718 -0.36916,-0.27344 -0.42457,-0.44806 -0.10227,-0.3222 -0.48288,-0.33497 -0.41019,-0.0138 0.0296,0.13074 -0.046,0.12913 -0.29914,-0.006 l -0.33872,-0.18128 0.37403,-0.11073 c 0.20571,-0.0609 0.68982,-0.19784 1.0758,-0.3043 0.38599,-0.10646 0.67163,-0.24237 0.63476,-0.30202 -0.0368,-0.0597 -0.38842,-0.21521 -0.78123,-0.34569 l -0.7142,-0.23721 -0.0378,-1.6089 c -0.0375,-1.594 -0.25516,-4.37945 -0.42739,-5.46933 -0.0882,-0.55807 -0.0832,-0.56504 0.37971,-0.52977 0.25798,0.0197 0.46906,0.0721 0.46906,0.11646 0,0.0444 0.29674,0.23815 0.65942,0.43055 0.36268,0.1924 0.86754,0.6088 1.12191,0.92533 l 0.46249,0.5755 0.0388,2.14468 c 0.0343,1.8967 -0.001,2.26908 -0.3076,3.22067 -0.31819,0.98835 -0.38529,1.0838 -0.82373,1.17188 -0.80121,0.16097 -1.00152,0.2376 -1.00152,0.38317 0,0.0768 0.0936,0.13967 0.20806,0.13967 0.11444,0 0.36717,0.13255 0.56164,0.29456 0.38108,0.31747 0.17355,0.39413 -0.41955,0.15496 z m -2.29714,-0.50694 c 0,-0.0316 0.16849,-0.0896 0.37442,-0.129 0.20593,-0.0393 0.37442,-0.0135 0.37442,0.0574 0,0.0709 -0.16849,0.129 -0.37442,0.129 -0.20593,0 -0.37442,-0.0259 -0.37442,-0.0574 z m -9.61328,-1.24303 c 0.10811,-0.0433 0.23729,-0.0379 0.28706,0.0118 0.0498,0.0498 -0.0387,0.0852 -0.19658,0.0787 -0.17447,-0.007 -0.20996,-0.0427 -0.0905,-0.0905 z m -4.53025,-2.63743 c 0.0562,-0.14771 0.13999,-0.23083 0.1861,-0.18471 0.0461,0.0461 1e-4,0.16695 -0.10226,0.26855 -0.14791,0.14681 -0.16511,0.12961 -0.0838,-0.0838 z m 0.3648,-0.70494 c 0.0882,-0.16475 0.194,-0.29954 0.23519,-0.29954 0.0412,0 0.002,0.13479 -0.0854,0.29954 -0.0882,0.16475 -0.19401,0.29954 -0.2352,0.29954 -0.0412,0 -0.002,-0.13479 0.0854,-0.29954 z m 50.72413,22.58699 c -0.0478,-0.11948 -0.0833,-0.084 -0.0905,0.0905 -0.006,0.15788 0.0289,0.24634 0.0787,0.19657 0.0498,-0.0498 0.0551,-0.17894 0.0118,-0.28705 z m 0.30102,-0.23117 c -0.038,-0.14572 -0.0715,-0.0628 -0.0746,0.18436 -0.003,0.24712 0.028,0.36635 0.069,0.26495 0.041,-0.1014 0.0435,-0.30359 0.005,-0.44931 z m -0.12925,-1.23844 -0.005,-0.37442 -0.11991,0.37442 c -0.0659,0.20593 -0.1219,0.50921 -0.12431,0.67396 -0.005,0.29954 -0.005,0.29954 0.12431,0 0.0708,-0.16475 0.12673,-0.46803 0.12431,-0.67396 z m 7.76597,-0.0281 c -0.0478,-0.11947 -0.0833,-0.084 -0.0905,0.0905 -0.007,0.15788 0.0289,0.24634 0.0787,0.19657 0.0498,-0.0498 0.0551,-0.17894 0.0118,-0.28706 z m -24.72058,-3.34171 c 0.94223,-1.91473 1.05277,-2.19651 1.48869,-3.79486 0.64215,-2.35454 0.8684,-6.24975 0.51031,-8.78571 -0.30927,-2.19021 -1.52431,-5.60763 -2.70898,-7.6193 -1.07905,-1.83231 -2.97123,-4.1167 -4.47888,-5.40727 -0.28657,-0.24529 0.0924,0.19278 0.84221,0.9735 2.98288,3.10597 4.44022,5.69104 5.69947,10.10984 0.40962,1.43741 0.42573,1.61858 0.42573,4.78884 0,2.90603 -0.0413,3.48051 -0.35032,4.86748 -0.41813,1.87701 -1.13998,3.87469 -2.13767,5.91586 -0.40263,0.82373 -0.62329,1.3629 -0.49036,1.19815 0.13293,-0.16475 0.67284,-1.17568 1.1998,-2.24653 z m -55.52376,0.74884 c -1.67387,-5.16068 -2.07295,-12.66017 -0.96036,-18.04712 0.74332,-3.59906 2.10016,-7.97388 2.36051,-7.61092 0.10491,0.14627 0.12001,0.13019 0.0583,-0.0621 -0.12051,-0.37537 0.21147,-1.21576 1.47353,-3.73004 1.96406,-3.91281 3.88848,-6.62167 6.95447,-9.78922 1.26975,-1.31181 1.87359,-1.87727 3.98296,-3.72977 l 0.44931,-0.39459 -0.44931,0.18159 c -0.24712,0.0999 -0.55571,0.26965 -0.68575,0.37728 -0.13005,0.10763 -0.30535,0.1957 -0.38956,0.1957 -0.0842,0 -0.48328,0.17432 -0.88682,0.38738 -1.77371,0.93647 -3.01805,1.62194 -3.50442,1.93048 -0.28831,0.18288 -0.89487,0.5654 -1.34792,0.85003 -2.76422,1.73664 -2.80175,1.76906 -3.95171,3.4128 -4.1535,5.93697 -5.89814,10.08027 -7.2562,17.23253 -0.60655,3.19439 -0.79081,8.80666 -0.35391,10.77956 l 0.11525,0.52042 0.26095,-0.37065 c 0.21961,-0.31194 0.28363,-0.33506 0.4042,-0.14599 0.0788,0.12356 0.14429,0.31443 0.14554,0.42415 0.007,0.58306 1.46026,4.28805 2.50708,6.39032 0.63238,1.27 1.42156,2.6403 1.48322,2.57541 0.0153,-0.0161 -0.16887,-0.6359 -0.40933,-1.37726 z m 72.95313,0.67396 c 0,-0.0824 -0.0714,-0.14977 -0.1586,-0.14977 -0.0872,0 -0.11696,0.0674 -0.066,0.14977 0.0509,0.0824 0.12228,0.14977 0.15861,0.14977 0.0363,0 0.066,-0.0674 0.066,-0.14977 z m -20.26919,-1.6849 c 1.99534,-3.05095 3.07481,-7.07629 2.82148,-10.52125 -0.46227,-6.28625 -3.60156,-11.78542 -8.60414,-15.07213 -0.86057,-0.5654 -1.62787,-1.028 -1.7051,-1.028 -0.17405,0 0.37826,0.4297 1.17301,0.9126 0.87557,0.53201 3.34832,3.16039 4.34049,4.6137 1.82424,2.67208 3.28113,6.785 3.63938,10.2743 0.19695,1.91827 0.0917,4.24761 -0.25034,5.54144 -0.56273,2.12847 -1.10169,3.89041 -1.23465,4.03626 -0.0713,0.0783 -0.12971,0.25798 -0.12971,0.39939 0,0.1414 -0.0505,0.27957 -0.11232,0.30703 -0.16823,0.0748 -0.80074,1.47272 -0.66634,1.47272 0.0638,0 0.39154,-0.42123 0.72824,-0.93606 z m 1.54811,0.48675 c 0.0882,-0.16474 0.12661,-0.29953 0.0854,-0.29953 -0.0412,0 -0.14702,0.13479 -0.2352,0.29953 -0.0882,0.16475 -0.12661,0.29954 -0.0854,0.29954 0.0412,0 0.14703,-0.13479 0.2352,-0.29954 z m 1.05277,-2.30857 c 0.24545,-0.61298 0.63067,-1.77648 0.85606,-2.58555 0.38506,-1.38229 0.40987,-1.65629 0.41119,-4.5413 0.001,-2.43431 -0.056,-3.33395 -0.27597,-4.34329 -0.59749,-2.74231 -1.89965,-5.68001 -3.5686,-8.05084 -1.46394,-2.0796 -3.91015,-4.3616 -5.889,-5.49367 -0.44428,-0.25417 -0.44518,-0.25398 -0.0802,0.0165 0.20303,0.15043 0.7759,0.5763 1.27303,0.94638 1.27226,0.9471 3.29357,3.0368 4.32323,4.4695 1.84102,2.56168 3.32269,6.16364 3.7908,9.21553 0.50692,3.30486 -0.0211,7.99512 -1.22821,10.9108 -0.51302,1.23912 -0.58509,1.47736 -0.29655,0.9803 0.13084,-0.2254 0.43872,-0.91135 0.68417,-1.52433 z m -40.00531,-0.52718 c -0.78965,-2.45552 -1.08076,-4.65559 -0.99218,-7.49829 0.093,-2.98368 0.38133,-4.50754 1.37448,-7.26377 0.0872,-0.24211 0.0764,-0.25647 -0.0563,-0.0749 -0.29544,0.40414 -1.03807,2.90979 -1.29022,4.35326 -0.43386,2.48367 -0.29604,6.24172 0.32093,8.7515 0.2827,1.15001 0.97003,3.25542 1.03993,3.18551 0.0295,-0.0294 -0.14905,-0.68343 -0.39664,-1.45332 z m 1.7904,-0.67285 c -0.24063,-0.73532 -0.53687,-1.90673 -0.65832,-2.60313 -0.29138,-1.67091 -0.28637,-5.26477 0.01,-6.95734 0.68408,-3.91074 2.36909,-7.43972 4.8798,-10.21995 1.04313,-1.15511 0.68199,-0.91435 -0.52668,0.35113 -2.13442,2.23473 -3.91969,5.84091 -4.6826,9.45872 -0.39614,1.87854 -0.36452,5.43915 0.0652,7.33866 0.35857,1.58505 1.19224,4.13935 1.30969,4.01277 0.0224,-0.0242 -0.15614,-0.64553 -0.39677,-1.38086 z m -1.55555,-0.72394 c -0.52593,-1.96766 -0.7262,-3.92771 -0.62967,-6.16242 0.2144,-4.96354 1.98989,-9.37577 5.34696,-13.28763 l 1.07607,-1.25389 -1.07109,1.11089 c -1.36212,1.41271 -2.15784,2.53307 -3.20284,4.50952 -1.65385,3.12798 -2.39948,6.18645 -2.39055,9.80576 0.006,2.25018 0.19678,3.52618 0.88336,5.89452 0.37864,1.30609 0.36877,0.8087 -0.0122,-0.61675 z m 57.34317,-2.43216 c -0.0474,-0.12356 -0.15465,-0.22466 -0.23829,-0.22466 -0.0877,0 -0.0731,0.0952 0.0343,0.22466 0.10255,0.12356 0.20978,0.22465 0.23829,0.22465 0.0285,0 0.0131,-0.10109 -0.0343,-0.22465 z m -11.42867,-0.45684 c -0.0726,-0.24297 -0.13773,-0.32934 -0.14481,-0.19193 -0.0144,0.27891 0.14549,0.76498 0.22533,0.68514 0.0283,-0.0283 -0.008,-0.25023 -0.0805,-0.49321 z m 11.22473,-0.1334 c 0,-0.0363 -0.0674,-0.1077 -0.14976,-0.15861 -0.0824,-0.0509 -0.14977,-0.0212 -0.14977,0.0661 0,0.0872 0.0674,0.15861 0.14977,0.15861 0.0824,0 0.14976,-0.0297 0.14976,-0.0661 z m -11.42987,-0.71088 c -0.0478,-0.11947 -0.0833,-0.084 -0.0905,0.0905 -0.007,0.15788 0.0289,0.24634 0.0787,0.19657 0.0498,-0.0498 0.0551,-0.17894 0.0118,-0.28706 z m 11.53616,-0.78324 c 0.0692,-0.0557 -0.42781,-1.96641 -0.54092,-2.07952 -0.19562,-0.19562 -0.42095,1.26881 -0.27933,1.81535 0.10862,0.41918 0.17689,0.47743 0.45824,0.391 0.18184,-0.0559 0.34474,-0.11293 0.36201,-0.12683 z m -0.53194,-0.38683 c 0,-0.20593 0.034,-0.29017 0.0755,-0.18721 0.0415,0.10297 0.0415,0.27146 0,0.37442 -0.0415,0.10297 -0.0755,0.0187 -0.0755,-0.18721 z m -11.30376,-0.17785 c -0.0478,-0.11947 -0.0833,-0.084 -0.0905,0.0905 -0.007,0.15788 0.0289,0.24634 0.0787,0.19657 0.0498,-0.0498 0.0551,-0.17894 0.0118,-0.28706 z m -56.46592,-6.89869 c -0.0415,-0.10296 -0.0755,-0.0187 -0.0755,0.18721 0,0.20593 0.034,0.29018 0.0755,0.18721 0.0415,-0.10296 0.0415,-0.27145 0,-0.37442 z m 11.94151,-2.92049 c 0.299,-0.5972 0.50993,-1.08582 0.46875,-1.08582 -0.0837,0 -1.12703,2.03011 -1.12703,2.19287 0,0.17707 0.0973,0.0134 0.65828,-1.10705 z m 33.33922,-7.12824 c 0,-0.0284 -0.15164,-0.18006 -0.33698,-0.33698 l -0.33698,-0.28531 0.28531,0.33698 c 0.26812,0.31668 0.38865,0.40516 0.38865,0.28531 z m -0.74884,-0.60395 c 0,-0.0311 -0.11795,-0.14905 -0.2621,-0.2621 -0.23754,-0.18629 -0.24284,-0.18099 -0.0565,0.0566 0.19565,0.24948 0.31864,0.32881 0.31864,0.20555 z m -2.69584,-0.76191 c 0,-0.0383 -0.15164,-0.1431 -0.33698,-0.23292 -0.32359,-0.15681 -0.32543,-0.15405 -0.0463,0.0696 0.30557,0.24481 0.38324,0.2779 0.38324,0.1633 z m 32.03328,-3.63716 c -0.8959,-1.57936 -3.01487,-4.55641 -4.57778,-6.43157 -0.85004,-1.01986 -1.54552,-1.91198 -1.54552,-1.98247 0,-0.0705 -0.10172,-0.16721 -0.22604,-0.21491 -0.12432,-0.0477 -0.20857,-0.17286 -0.18721,-0.27812 0.0214,-0.10526 -0.0374,-0.17721 -0.13055,-0.15988 -0.0932,0.0173 -0.29535,-0.11747 -0.4493,-0.29954 l -0.27993,-0.33103 0.36238,0.29953 c 0.35324,0.29199 0.35968,0.2922 0.25564,0.008 -0.10275,-0.28029 -0.0958,-0.28123 0.18734,-0.025 0.28279,0.25592 0.30046,0.25417 0.46102,-0.0458 0.16434,-0.30707 0.60572,-0.43798 0.60572,-0.17966 0,0.19706 0.58403,0.31275 0.69253,0.13719 0.0594,-0.0962 0.13674,-0.0822 0.21122,0.0383 0.0914,0.14797 0.17257,0.13493 0.3664,-0.0589 0.13692,-0.13692 0.31152,-0.24894 0.38801,-0.24894 0.0765,0 0.13907,-0.11457 0.13907,-0.25461 0,-0.17321 0.0489,-0.20572 0.1529,-0.1017 0.0841,0.0841 0.19415,0.59461 0.24456,1.13449 0.0847,0.90668 0.11873,0.9816 0.44618,0.9816 0.28629,0 0.35812,-0.0829 0.37323,-0.43058 0.0103,-0.23683 0.0355,-0.49798 0.0562,-0.58036 0.0206,-0.0824 0.0512,-0.3351 0.068,-0.56163 0.0187,-0.25272 0.0642,-0.32609 0.11768,-0.18988 0.0479,0.12208 0.18091,0.31576 0.29554,0.43039 0.13014,0.13014 0.17485,0.36123 0.11904,0.61533 -0.0598,0.27207 -0.0127,0.47052 0.14194,0.59888 0.26536,0.22023 0.31688,0.52539 0.0621,0.36794 -0.10086,-0.0623 -0.14245,-0.0243 -0.10296,0.0941 0.12466,0.37401 0.36524,0.29841 0.5808,-0.18252 0.11856,-0.26449 0.31664,-0.50688 0.4402,-0.53863 0.13806,-0.0355 0.16493,-0.01 0.0697,0.066 -0.0852,0.068 -0.15262,0.25852 -0.14977,0.42327 0.005,0.28297 0.1418,0.30523 2.47635,0.40263 1.42501,0.0595 2.52919,0.0458 2.60819,-0.0322 0.0754,-0.0744 0.16795,-0.50832 0.20576,-0.96427 0.0473,-0.57058 0.133,-0.82899 0.27485,-0.82899 0.11336,0 0.20611,0.0674 0.20611,0.14977 0,0.0824 -0.067,0.14976 -0.14883,0.14976 -0.18566,0 -0.11696,0.368 0.19574,1.04839 l 0.2409,0.52419 0.0232,-0.52419 c 0.0128,-0.28831 0.0541,-0.40625 0.0917,-0.2621 0.0377,0.14415 0.13095,0.2621 0.20728,0.2621 0.0763,0 0.14766,0.38752 0.15851,0.86117 0.017,0.74208 0.0336,0.78868 0.12007,0.33698 l 0.10037,-0.5242 0.11774,0.63652 c 0.13244,0.71601 0.34688,0.83888 0.41844,0.23976 0.0261,-0.21822 0.14848,-0.44363 0.27204,-0.50092 0.12356,-0.0573 0.35945,-0.16814 0.52419,-0.24635 0.29436,-0.13974 2.22141,-0.12971 3.18819,0.0166 0.27079,0.041 0.64147,0.15674 0.82372,0.25724 0.18226,0.1005 0.44933,0.16469 0.59348,0.14263 0.15836,-0.0242 0.26209,0.056 0.26209,0.2028 0,0.1336 0.0685,0.20058 0.15222,0.14884 0.0837,-0.0517 0.11719,-0.15073 0.0744,-0.21998 -0.14122,-0.2285 0.0999,-0.60224 0.38848,-0.60224 0.15594,0 0.28352,-0.0582 0.28352,-0.12935 0,-0.0711 0.17055,-0.2999 0.37901,-0.50835 0.23539,-0.23539 0.444,-0.68891 0.55054,-1.19685 0.15815,-0.75395 0.14317,-0.8751 -0.19179,-1.55096 -0.19984,-0.40322 -0.50593,-0.79576 -0.6802,-0.87231 -0.25977,-0.1141 -0.34951,-0.35867 -0.49811,-1.35746 -0.22692,-1.52526 -0.33102,-1.71493 -0.66309,-1.20813 -0.22754,0.34727 -0.71901,0.54436 -0.67585,0.27103 0.01,-0.0618 0.008,-0.34821 -0.003,-0.63652 -0.0174,-0.4352 -0.10306,-0.56233 -0.50448,-0.74884 -0.41841,-0.19441 -0.47823,-0.2914 -0.44429,-0.72032 0.0216,-0.27262 -0.0541,-0.58898 -0.16814,-0.70303 -0.17663,-0.17663 -0.24822,-0.13148 -0.48314,0.30474 -0.53457,0.99264 -0.76839,0.56929 -0.44716,-0.80965 0.0816,-0.35037 0.0608,-0.54065 -0.0678,-0.62015 -0.12972,-0.0802 -0.0862,-0.14622 0.14459,-0.21947 0.18727,-0.0594 0.2977,-0.18936 0.25516,-0.30022 -0.0563,-0.14686 0.0646,-0.17672 0.48654,-0.12012 0.40711,0.0546 0.63265,0.004 0.82014,-0.18328 0.32152,-0.32152 0.22112,-0.45099 -0.18229,-0.23509 -0.40985,0.21934 -0.66022,0.20369 -1.00499,-0.0628 -0.28586,-0.221 -0.28509,-0.22954 0.0463,-0.51076 0.37549,-0.31869 0.42509,-0.46264 0.15942,-0.46264 -0.27853,0 -0.87083,0.62294 -0.87083,0.91588 0,0.14552 -0.0585,0.30077 -0.13009,0.34499 -0.0716,0.0442 -0.17672,0.55367 -0.23372,1.1321 -0.088,0.89283 -0.14617,1.05171 -0.38526,1.05171 -0.1549,0 -0.32328,0.0674 -0.37419,0.14977 -0.13292,0.21506 -0.57291,0.18461 -1.0687,-0.074 -0.53763,-0.2804 -0.74913,-0.28351 -0.85311,-0.0125 -0.05,0.13037 -0.20151,0.1817 -0.39044,0.1323 -0.18852,-0.0493 -0.3087,-0.009 -0.3087,0.10398 0,0.11096 -0.11958,0.15343 -0.29954,0.10637 -0.16475,-0.0431 -0.29954,-0.0172 -0.29954,0.0574 0,0.0747 -0.0799,0.13575 -0.17756,0.13575 -0.0977,0 -0.31979,0.13362 -0.49363,0.29693 -0.27705,0.26029 -0.54632,0.29975 -2.1813,0.31965 -1.02587,0.0125 -2.53918,-0.0444 -3.36291,-0.1265 -1.23442,-0.12299 -1.57666,-0.11066 -1.94699,0.0702 -0.27115,0.13239 -1.25102,0.27044 -2.47119,0.34815 -2.67347,0.17027 -2.89202,0.20352 -2.97299,0.45226 -0.0379,0.11657 -0.21864,0.41412 -0.40157,0.66124 -0.18292,0.24712 -0.41439,0.7046 -0.51438,1.01663 -0.2196,0.68528 -0.0992,0.91374 1.05284,1.99784 2.30801,2.17189 4.73499,5.10936 7.03746,8.51772 1.0053,1.48814 2.13839,3.07026 2.19888,3.07026 0.034,0 -0.15802,-0.38753 -0.4267,-0.86117 z m 5.40606,-6.29023 c -0.14302,-0.22379 -0.15538,-0.20735 -0.0844,0.11227 0.0457,0.20593 0.0968,0.7114 0.1135,1.12327 l 0.0303,0.74884 0.054,-0.86112 c 0.0299,-0.47701 -0.0207,-0.97805 -0.11351,-1.12326 z m -7.87485,0.17012 c -0.11285,-0.90984 -0.2106,-0.78582 -0.20033,0.25417 0.007,0.70138 0.0448,0.87351 0.1401,0.63712 0.0718,-0.17813 0.0989,-0.57922 0.0602,-0.89129 z m 7.39811,-0.0763 c -0.0508,-0.49334 -0.0539,-0.49022 -0.12682,0.12682 -0.0411,0.34794 -0.0177,0.57555 0.0521,0.5058 0.0697,-0.0698 0.10339,-0.35444 0.0747,-0.63262 z m -81.43334,0.21525 c 0.0841,-0.22122 0.13292,-0.74354 0.10847,-1.16071 l -0.0444,-0.75848 -0.19737,0.89861 c -0.10856,0.49424 -0.23098,1.01656 -0.27205,1.16071 -0.12075,0.42387 0.23813,0.29982 0.4054,-0.14013 z m 73.14568,-0.28546 c 0.10822,-0.72165 0.004,-1.10132 -0.13515,-0.4907 -0.17692,0.77833 -0.20775,1.17838 -0.0908,1.17838 0.0676,0 0.16925,-0.30945 0.22597,-0.68768 z m 1.29796,-1.55885 -0.13611,-0.67395 -0.0144,0.82372 c -0.008,0.45305 0.0352,0.99222 0.0959,1.19815 0.10167,0.34517 0.11342,0.33347 0.15047,-0.14977 0.0221,-0.2883 -0.0211,-0.82747 -0.0959,-1.19815 z m -12.00066,1.34792 c 0,-0.0824 -0.0674,-0.14977 -0.14977,-0.14977 -0.0824,0 -0.14977,0.0674 -0.14977,0.14977 0,0.0824 0.0674,0.14977 0.14977,0.14977 0.0824,0 0.14977,-0.0674 0.14977,-0.14977 z m 18.67363,-0.32762 c -0.0478,-0.11947 -0.0833,-0.084 -0.0905,0.0905 -0.007,0.15788 0.0289,0.24634 0.0787,0.19657 0.0498,-0.0498 0.0551,-0.17894 0.0118,-0.28706 z m -8.27082,-1.09518 c 0.0723,-0.55722 0.0565,-0.68455 -0.062,-0.49758 -0.0876,0.13819 -0.19672,0.57627 -0.24251,0.97349 -0.0571,0.49499 -0.0375,0.65155 0.062,0.49759 0.0799,-0.12356 0.18904,-0.56164 0.24252,-0.9735 z m 8.42152,0.11233 c -0.0376,-0.14416 -0.0685,-0.0262 -0.0685,0.26209 0,0.28831 0.0308,0.40625 0.0685,0.2621 0.0377,-0.14416 0.0377,-0.38004 0,-0.52419 z m -9.04976,-0.12697 c 0.11998,-0.11999 -0.037,-0.50955 -0.2054,-0.50955 -0.0736,0 -0.13374,0.13479 -0.13374,0.29954 0,0.29192 0.15886,0.39029 0.33914,0.21001 z m -50.42165,-0.74345 c 0.8105,-0.2934 1.72619,-0.54351 2.03485,-0.55583 0.36236,-0.0145 0.4966,-0.0685 0.37888,-0.15263 -0.11068,-0.0791 -0.0172,-0.0941 0.23779,-0.0383 0.23106,0.0506 0.85773,-0.0178 1.39259,-0.15196 0.53486,-0.13414 1.05347,-0.25912 1.15247,-0.27772 0.66542,-0.12507 2.01499,-0.43293 2.20186,-0.50227 1.0619,-0.39405 2.7506,-0.55645 5.61632,-0.5401 2.31247,0.0132 2.82465,-0.016 2.24653,-0.1282 -0.41186,-0.0799 -2.09676,-0.15367 -3.74422,-0.1639 -2.76097,-0.0171 -3.14773,0.0143 -4.94236,0.40215 -3.03063,0.65492 -5.93356,1.53607 -7.86287,2.38669 -0.9668,0.42625 -0.20026,0.26088 1.28816,-0.2779 z m 18.5562,-1.86286 c -0.0509,-0.0824 -0.27393,-0.1418 -0.49559,-0.13205 l -0.40302,0.0177 0.44931,0.11433 c 0.24711,0.0629 0.47013,0.1223 0.49558,0.13204 0.0255,0.01 0.004,-0.0497 -0.0463,-0.13204 z m -1.53513,-0.25547 c -0.18534,-0.0357 -0.48862,-0.0357 -0.67396,0 -0.18533,0.0357 -0.0337,0.0649 0.33698,0.0649 0.37068,0 0.52232,-0.0292 0.33698,-0.0649 z m 2.6584,-0.0202 c 0,-0.0692 -0.38753,-0.20955 -0.86117,-0.31186 -0.47365,-0.10232 -1.14375,-0.24787 -1.48913,-0.32346 -0.34537,-0.0756 -0.73771,-0.13744 -0.87187,-0.13744 -0.21722,0 -0.21924,0.0247 -0.0184,0.22551 0.12404,0.12404 0.55008,0.26151 0.94676,0.30551 0.39668,0.044 0.99082,0.13695 1.32031,0.20657 0.82768,0.17488 0.9735,0.18014 0.9735,0.0352 z m 24.80232,-1.78058 c -0.15225,-0.15224 -0.27787,0.077 -0.15295,0.27908 0.0944,0.15268 0.12963,0.15279 0.18036,5e-4 0.0347,-0.10406 0.0224,-0.22992 -0.0274,-0.27969 z m 20.65247,-4.68339 c 0.0523,-0.0846 -0.0704,-0.14977 -0.28186,-0.14977 -0.20593,0 -0.41607,0.0674 -0.46698,0.14977 -0.0523,0.0846 0.0704,0.14977 0.28186,0.14977 0.20593,0 0.41608,-0.0674 0.46698,-0.14977 z m 0.28885,-0.53489 c 0.37504,-0.37504 0.27468,-0.5013 -0.25141,-0.31628 -0.62674,0.22043 -0.60806,0.20557 -0.4929,0.3919 0.14219,0.23007 0.47214,0.19655 0.74431,-0.0756 z m -0.0642,-1.63675 c -0.10255,-0.12356 -0.25384,-0.22466 -0.33622,-0.22466 -0.0836,0 -0.0673,0.0993 0.0367,0.22466 0.10255,0.12355 0.25385,0.22465 0.33622,0.22465 0.0835,0 0.0673,-0.0993 -0.0367,-0.22465 z m -58.13468,-1.68273 c 1.55749,-0.21346 3.06604,-0.26031 8.43828,-0.26209 6.03646,-0.002 6.52468,-0.021 6.32084,-0.24622 -0.12149,-0.13423 -0.49637,-0.28811 -0.83308,-0.34194 -0.3367,-0.0538 -0.58164,-0.12844 -0.54431,-0.16577 0.0827,-0.0827 1.98718,0.27552 3.11726,0.58636 0.45305,0.12461 0.99222,0.26525 1.19815,0.31254 l 0.37442,0.086 -0.37442,-0.16861 c -0.61593,-0.27737 -2.37448,-0.74598 -3.96628,-1.05693 -2.77398,-0.54187 -9.89333,-0.52164 -14.00596,0.0398 -1.27808,0.17447 -3.43427,0.66517 -3.57522,0.81362 -0.087,0.0916 0.54415,-0.002 1.2538,-0.18556 0.26514,-0.0687 0.26002,-0.0486 -0.0446,0.17444 -0.27294,0.19989 -0.30787,0.29569 -0.16887,0.46318 0.22485,0.27093 0.51394,0.26591 2.80997,-0.0488 z m 18.55519,0.0197 c -0.0498,-0.0498 -0.17894,-0.0551 -0.28705,-0.0118 -0.11948,0.0478 -0.084,0.0833 0.0905,0.0905 0.15788,0.006 0.24633,-0.0289 0.19657,-0.0787 z"
         style="fill:#a60b00;fill-opacity:1" />
    </g>
  </g>
</svg>
